<svg xmlns="http://www.w3.org/2000/svg" width="22" height="22" viewBox="0 0 24 24" fill="currentColor">
  <path d="M12 2.163c3.204 0 3.584.012 4.85.07 1.17.055 1.97.24 2.678.512a5.4 5.4 0 0 1 1.95 1.27 5.4 5.4 0 0 1 1.27 1.95c.272.708.457 1.508.512 2.678.058 1.266.07 1.646.07 4.85s-.012 3.584-.07 4.85c-.055 1.17-.24 1.97-.512 2.678a5.4 5.4 0 0 1-1.27 1.95 5.4 5.4 0 0 1-1.95 1.27c-.708.272-1.508.457-2.678.512-1.266.058-1.646.07-4.85.07s-3.584-.012-4.85-.07c-1.17-.055-1.97-.24-2.678-.512a5.4 5.4 0 0 1-1.95-1.27 5.4 5.4 0 0 1-1.27-1.95c-.272-.708-.457-1.508-.512-2.678C2.175 15.584 2.163 15.204 2.163 12s.012-3.584.07-4.85c.055-1.17.24-1.97.512-2.678a5.4 5.4 0 0 1 1.27-1.95 5.4 5.4 0 0 1 1.95-1.27c.708-.272 1.508-.457 2.678-.512C8.416 2.175 8.796 2.163 12 2.163zm0 1.8c-3.16 0-3.532.012-4.776.07-.97.045-1.497.207-1.847.345-.465.18-.797.394-1.147.744-.35.35-.564.682-.744 1.147-.138.35-.3.877-.345 1.847-.058 1.244-.07 1.616-.07 4.776s.012 3.532.07 4.776c.045.97.207 1.497.345 1.847.18.465.394.797.744 1.147.35.35.682.564 1.147.744.35.138.877.3 1.847.345 1.244.058 1.616.07 4.776.07s3.532-.012 4.776-.07c.97-.045 1.497-.207 1.847-.345.465-.18.797-.394 1.147-.744.35-.35.564-.682.744-1.147.138-.35.3-.877.345-1.847.058-1.244.07-1.616.07-4.776s-.012-3.532-.07-4.776c-.045-.97-.207-1.497-.345-1.847a3.6 3.6 0 0 0-.744-1.147 3.6 3.6 0 0 0-1.147-.744c-.35-.138-.877-.3-1.847-.345-1.244-.058-1.616-.07-4.776-.07zm0 3.674a4.363 4.363 0 1 1 0 8.726 4.363 4.363 0 0 1 0-8.726zm0 1.8a2.563 2.563 0 1 0 0 5.126 2.563 2.563 0 0 0 0-5.126zm5.55-2.58a1.02 1.02 0 1 1 0 2.04 1.02 1.02 0 0 1 0-2.04z"></path>
</svg>
